<?xml version="1.0" encoding="UTF-8"?>
<!DOCTYPE svg PUBLIC "-//W3C//DTD SVG 1.0//EN" "http://www.w3.org/TR/2001/REC-SVG-20010904/DTD/svg10.dtd">
<!-- Creator: CorelDRAW 2019 (64-Bit) -->
<svg xmlns="http://www.w3.org/2000/svg" xml:space="preserve" width="200mm" height="200mm" version="1.0" shape-rendering="geometricPrecision" text-rendering="geometricPrecision" image-rendering="optimizeQuality" fill-rule="evenodd" clip-rule="evenodd"
viewBox="0 0 20000 20000"
 xmlns:xlink="http://www.w3.org/1999/xlink">
 <g id="Layer_x0020_1">
  <metadata id="CorelCorpID_0Corel-Layer"/>
  <g id="inside">
   <path fill="none" stroke="#343A40" stroke-width="211.67" stroke-linecap="round" stroke-miterlimit="22.9256" d="M4610.42 4049.16c-679.44,1017.86 -1075.52,2240.98 -1075.52,3556.62 0,1598.78 584.94,3060.95 1552.47,4184.16m11205.62 -5138.69c-428.42,-2871.56 -2760.17,-5121.4 -5670.66,-5424.9"/>
   <g>
    <path fill="none" stroke="#343A40" stroke-width="211.67" stroke-linecap="round" stroke-miterlimit="22.9256" d="M12883.43 14851.95c928.55,-984.87 -127.8,-1878.65 -967.15,-1554.04 -609.3,235.64 -1140.88,319.2 -1923.67,319.2 -662.29,0 -1341.8,-121.3 -1937.79,-318.21 -1040.13,-343.66 -1751.57,899.35 -945.08,1592.83m8725.43 -2157.42c-941.92,814.91 -2040.19,-451.49 -1351.15,-1246.17 759.31,-875.73 1445.25,-2272.94 1445.25,-3882.36 0,-3302.44 -2677.15,-5979.59 -5979.58,-5979.59 -3302.44,0 -5979.59,2677.15 -5979.59,5979.59 0,1530.3 574.86,2926.33 1520.39,3983.93 612.16,793.02 -689.53,2002.88 -1425.08,1203.84"/>
    <g>
     <circle fill="#343A40" stroke="#343A40" stroke-width="141.11" stroke-miterlimit="22.9256" cx="12697.02" cy="15018.28" r="38.17"/>
     <circle fill="#343A40" stroke="#343A40" stroke-width="35.28" stroke-miterlimit="22.9256" cx="12549.55" cy="15135.92" r="38.17"/>
     <circle fill="#343A40" stroke="#343A40" stroke-width="141.11" stroke-miterlimit="22.9256" transform="matrix(2.01097E-14 -0.7593 0.7593 2.01097E-14 7298.98 15032.2)" r="50.27"/>
     <circle fill="#343A40" stroke="#343A40" stroke-width="35.28" stroke-miterlimit="22.9256" transform="matrix(2.01097E-14 -0.7593 0.7593 2.01097E-14 7456.62 15129.6)" r="50.27"/>
     <circle fill="#343A40" stroke="#343A40" stroke-width="141.11" stroke-miterlimit="22.9256" transform="matrix(2.01097E-14 -0.7593 0.7593 2.01097E-14 3901.19 12621.4)" r="50.27"/>
     <circle fill="#343A40" stroke="#343A40" stroke-width="35.28" stroke-miterlimit="22.9256" transform="matrix(2.01097E-14 -0.7593 0.7593 2.01097E-14 3766.25 12507.1)" r="50.27"/>
     <circle fill="#343A40" stroke="#343A40" stroke-width="141.11" stroke-miterlimit="22.9256" transform="matrix(2.01097E-14 -0.7593 0.7593 2.01097E-14 16007.4 12580.4)" r="50.27"/>
     <circle fill="#343A40" stroke="#343A40" stroke-width="35.28" stroke-miterlimit="22.9256" transform="matrix(2.01097E-14 -0.7593 0.7593 2.01097E-14 16156.1 12477.7)" r="50.27"/>
    </g>
   </g>
   <path fill="none" stroke="#343A40" stroke-width="105.83" stroke-linecap="round" stroke-miterlimit="22.9256" d="M17030.8 6703.94c-118.16,-896.47 -404.24,-1741.52 -825.66,-2502.29m-941.52 -1320.54c-78.36,-87.12 -158.83,-172.33 -241.34,-255.52m-10780.06 726.92c-462.66,612.98 -828.83,1302.88 -1075.89,2047.12m-340.99 1695.78c-14.15,183.7 -21.37,369.38 -21.37,556.73 0,731.5 110.19,1437.72 314.81,2102.81m4085.01 4498.64c845.32,352.02 1772.41,545.28 2744.1,542.45 951.34,-2.78 1859.44,-191.67 2689.78,-531.98m2703.04 -1942.65c214.82,-247.58 412.97,-510 592.67,-785.45"/>
   <g id="bubles">
    <circle fill="#343A40" stroke="#343A40" stroke-width="70.56" stroke-miterlimit="22.9256" cx="4346.23" cy="2270.52" r="576.79"/>
    <circle fill="#343A40" stroke="#343A40" stroke-width="70.56" stroke-miterlimit="22.9256" cx="3192.67" cy="2408.1" r="148.17"/>
    <circle fill="#343A40" stroke="#343A40" stroke-width="70.56" stroke-miterlimit="22.9256" cx="3351.42" cy="3148.93" r="296.33"/>
    <circle fill="#343A40" stroke="#343A40" stroke-width="70.56" stroke-miterlimit="22.9256" cx="7298.4" cy="884.72" r="190.5"/>
    <circle fill="#343A40" stroke="#343A40" stroke-width="70.56" stroke-miterlimit="22.9256" cx="17661.8" cy="7329.38" r="182.64"/>
    <circle fill="#343A40" stroke="#343A40" stroke-width="70.56" stroke-miterlimit="22.9256" cx="18263.88" cy="6155.22" r="582.09"/>
   </g>
   <path fill="#343A40" stroke="#343A40" stroke-width="141.11" stroke-miterlimit="22.9256" d="M4851.79 13606.82c369.58,-57.17 708.17,-278.66 951.73,-540.28l1883.1 -2730.46c215.5,-276.32 353.91,-603.91 353.91,-981.49 0,-1127.27 -1063.97,-1490.03 -1884.6,-2020.76 -31.37,-20.29 -48.01,-53.58 -45.44,-90.85 2.57,-37.27 23.64,-67.96 57.5,-83.75l2972.23 -1385.97 2770.44 -1348.79c66.07,-32.17 138.76,-27 199.62,14.18 60.87,41.18 92.7,106.73 87.41,180.03l-226.26 3137 -180.91 3190.86c-2.13,37.5 -23.04,68.59 -56.97,84.69 -33.94,16.1 -71.24,12.64 -101.63,-9.43 -1037.34,-752.74 -1311.65,-1035.16 -2030.87,-1035.16 -532.29,0 -1005,225.18 -1302.44,619.88l-1948.58 2848.82c-120.75,227.59 -189.16,487.21 -189.16,762.81 0,128.5 34.91,223.55 62.99,343.46 177.45,757.67 580.17,953.53 580.17,1953.6 0,1616.41 -1310.36,2926.77 -2926.77,2926.77 -1616.41,0 -2926.77,-1310.36 -2926.77,-2926.77 0,-1616.41 1310.36,-2926.77 2926.77,-2926.77 389.1,0 563.99,81.8 974.53,18.38z"/>
  </g>
 </g>
</svg>
