<?xml version="1.0" encoding="UTF-8"?>
<!DOCTYPE svg PUBLIC "-//W3C//DTD SVG 1.0//EN" "http://www.w3.org/TR/2001/REC-SVG-20010904/DTD/svg10.dtd">
<!-- Creator: CorelDRAW 2019 (64-Bit) -->
<svg xmlns="http://www.w3.org/2000/svg" xml:space="preserve" width="200mm" height="200mm" version="1.0" shape-rendering="geometricPrecision" text-rendering="geometricPrecision" image-rendering="optimizeQuality" fill-rule="evenodd" clip-rule="evenodd"
viewBox="0 0 20000 20000"
 xmlns:xlink="http://www.w3.org/1999/xlink">
 <g id="Layer_x0020_1">
  <metadata id="CorelCorpID_0Corel-Layer"/>
  <g id="outside">
   <g>
    <path fill="none" stroke="#343A40" stroke-width="211.67" stroke-linecap="round" stroke-miterlimit="22.9256" d="M12856.48 14840.84c928.55,-984.87 -127.8,-1878.65 -967.15,-1554.04 -609.3,235.64 -1140.88,319.2 -1923.67,319.2 -662.29,0 -1341.8,-121.3 -1937.79,-318.21 -1040.13,-343.66 -1751.57,899.35 -945.08,1592.83m8725.43 -2157.42c-941.92,814.91 -2040.19,-451.49 -1351.15,-1246.17 759.31,-875.73 1445.25,-2272.94 1445.25,-3882.36 0,-3302.44 -2677.15,-5979.59 -5979.58,-5979.59 -3302.44,0 -5979.59,2677.15 -5979.59,5979.59 0,1530.3 574.86,2926.33 1520.39,3983.93 612.16,793.02 -689.53,2002.88 -1425.08,1203.84"/>
    <g>
     <circle fill="#343A40" stroke="#343A40" stroke-width="141.11" stroke-miterlimit="22.9256" cx="12670.07" cy="15007.17" r="38.17"/>
     <circle fill="#343A40" stroke="#343A40" stroke-width="35.28" stroke-miterlimit="22.9256" cx="12522.6" cy="15124.81" r="38.17"/>
     <circle fill="#343A40" stroke="#343A40" stroke-width="141.11" stroke-miterlimit="22.9256" transform="matrix(2.01097E-14 -0.7593 0.7593 2.01097E-14 7272.03 15021.1)" r="50.27"/>
     <circle fill="#343A40" stroke="#343A40" stroke-width="35.28" stroke-miterlimit="22.9256" transform="matrix(2.01097E-14 -0.7593 0.7593 2.01097E-14 7429.67 15118.5)" r="50.27"/>
     <circle fill="#343A40" stroke="#343A40" stroke-width="141.11" stroke-miterlimit="22.9256" transform="matrix(2.01097E-14 -0.7593 0.7593 2.01097E-14 3874.24 12610.3)" r="50.27"/>
     <circle fill="#343A40" stroke="#343A40" stroke-width="35.28" stroke-miterlimit="22.9256" transform="matrix(2.01097E-14 -0.7593 0.7593 2.01097E-14 3739.3 12496)" r="50.27"/>
     <circle fill="#343A40" stroke="#343A40" stroke-width="141.11" stroke-miterlimit="22.9256" transform="matrix(2.01097E-14 -0.7593 0.7593 2.01097E-14 15980.4 12569.3)" r="50.27"/>
     <circle fill="#343A40" stroke="#343A40" stroke-width="35.28" stroke-miterlimit="22.9256" transform="matrix(2.01097E-14 -0.7593 0.7593 2.01097E-14 16129.2 12466.6)" r="50.27"/>
    </g>
   </g>
   <path fill="none" stroke="#343A40" stroke-width="211.67" stroke-linecap="round" stroke-miterlimit="22.9256" d="M4583.94 4038.05c-679.44,1017.86 -1075.52,2240.98 -1075.52,3556.62 0,1598.78 584.94,3060.95 1552.47,4184.16m11205.62 -5138.69c-428.42,-2871.56 -2760.17,-5121.4 -5670.66,-5424.9"/>
   <path fill="none" stroke="#343A40" stroke-width="105.83" stroke-linecap="round" stroke-miterlimit="22.9256" d="M17004.32 6692.83c-118.16,-896.47 -404.24,-1741.52 -825.66,-2502.29m-941.52 -1320.54c-78.36,-87.12 -158.83,-172.33 -241.34,-255.52m-10780.06 726.92c-462.66,612.98 -828.83,1302.88 -1075.89,2047.12m-340.99 1695.78c-14.15,183.7 -21.37,369.38 -21.37,556.73 0,731.5 110.19,1437.72 314.81,2102.81m4085.01 4498.64c845.32,352.02 1772.41,545.28 2744.1,542.45 951.34,-2.78 1859.44,-191.67 2689.78,-531.98m2703.04 -1942.65c214.82,-247.58 412.97,-510 592.67,-785.45"/>
   <path fill="#343A40" stroke="#343A40" stroke-width="141.11" stroke-miterlimit="22.9256" d="M5949.82 11230.28c-876.14,-955.25 -1405.04,-2229.85 -1405.04,-3635.61 0,-2970.16 2407.79,-5377.95 5377.95,-5377.95 2970.16,0 5377.95,2407.79 5377.95,5377.95 0,2970.16 -2407.79,5377.95 -5377.95,5377.95 -646.48,0 -1285.71,-121.88 -1863.02,-332.24 -143.4,-52.25 -276.03,-69.85 -428.09,-56.77 -831.57,71.55 -1497.23,752.42 -1497.23,1623.43 0,1087.9 1025.35,1507.28 1832.61,2033.83 31.23,20.38 47.74,53.63 45.1,90.83 -2.64,37.21 -23.69,67.8 -57.49,83.56l-2972.23 1385.97 -2818.48 1314.28c-66.56,31.03 -139.08,24.69 -199.24,-17.43 -60.15,-42.12 -90.92,-108.1 -84.52,-181.26l271.03 -3098.01 285.86 -3267.37c3.25,-37.09 24.72,-67.28 58.69,-82.52 33.97,-15.24 70.8,-11.21 100.66,11.03 608.17,452.92 1288.82,1095.04 1987.49,1095.04 900.13,0 1629.84,-729.71 1629.84,-1629.84 0,-28.51 -0.62,-56.51 -1.86,-84.1 -11.04,-244.17 -96.82,-450.64 -262.03,-630.77z"/>
   <g id="bubles">
    <circle fill="#343A40" stroke="#343A40" stroke-width="70.56" stroke-miterlimit="22.9256" cx="4346.74" cy="2269.41" r="576.79"/>
    <circle fill="#343A40" stroke="#343A40" stroke-width="70.56" stroke-miterlimit="22.9256" cx="3193.18" cy="2406.99" r="148.17"/>
    <circle fill="#343A40" stroke="#343A40" stroke-width="70.56" stroke-miterlimit="22.9256" cx="3351.93" cy="3147.82" r="296.33"/>
    <circle fill="#343A40" stroke="#343A40" stroke-width="70.56" stroke-miterlimit="22.9256" cx="7298.91" cy="883.61" r="190.5"/>
    <circle fill="#343A40" stroke="#343A40" stroke-width="70.56" stroke-miterlimit="22.9256" cx="17662.31" cy="7328.27" r="182.64"/>
    <circle fill="#343A40" stroke="#343A40" stroke-width="70.56" stroke-miterlimit="22.9256" cx="18264.39" cy="6154.11" r="582.09"/>
   </g>
  </g>
 </g>
</svg>
